# xmcd CD database file
#
# Track frame offsets:
#	150
#	16575
#	41109
#	52322
#	69240
#	90571
#	121620
#	140746
#	159026
#	177458
#	199010
#	218626
#	235696
#
# Disc length: 3315 seconds
#
# Revision: 0
# Processed by: cddbd v1.5.2PL0 Copyright (c) Steve Scherf et al.
# Submitted via: CDex 1.70beta2
#
DISCID=a70cf10d
DTITLE=Stevie Ray Vaughan - Greatest Hits (DTS 5.1 Upmix)
DYEAR=1900
DGENRE=Salsa
TTITLE0=Stevie Ray Vaughan - Taxman
TTITLE1=Stevie Ray Vaughan - Texas Flood
TTITLE2=Stevie Ray Vaughan - The House Is Rockin
TTITLE3=Stevie Ray Vaughan - Pride And Joy
TTITLE4=Stevie Ray Vaughan - Tightrope
TTITLE5=Stevie Ray Vaughan - Little Wing
TTITLE6=Stevie Ray Vaughan - Crossfire
TTITLE7=Stevie Ray Vaughan - Change It
TTITLE8=Stevie Ray Vaughan - Cold Shot
TTITLE9=Stevie Ray Vaughan - Couldn't Stand the Weather
TTITLE10=Stevie Ray Vaughan - Life Without You
TTITLE11=Stevie Ray Vaughan - I'm Cryin'
TTITLE12=Stevie Ray Vaughan - Mary Had A Little Lamb
EXTD=
EXTT0=
EXTT1=
EXTT2=
EXTT3=
EXTT4=
EXTT5=
EXTT6=
EXTT7=
EXTT8=
EXTT9=
EXTT10=
EXTT11=
EXTT12=
PLAYORDER=
